<svg width="119" height="61" viewBox="0 0 119 61" fill="none" xmlns="http://www.w3.org/2000/svg">
<path d="M0.100674 15.8099C1.9513 15.6666 3.94439 16.2757 5.44 17.6742C6.93691 19.0739 7.92797 21.2573 7.78783 24.2477V38.9281C8.06807 44.3409 9.68217 48.0603 11.9314 50.3733C14.1806 52.6862 17.0747 53.6028 19.9368 53.3932C25.6665 52.9737 31.2606 48.0417 31.2606 40.7631V31.7292C31.2606 31.679 31.282 31.6375 31.307 31.6068C31.3314 31.5767 31.3635 31.5517 31.3968 31.5306C31.4635 31.4887 31.5546 31.451 31.6614 31.4163C31.8761 31.3465 32.1784 31.2816 32.5349 31.2239C33.25 31.1082 34.2009 31.0196 35.1503 30.9843C36.0993 30.9489 37.0526 30.9663 37.7712 31.0646C38.1293 31.1135 38.4368 31.1835 38.6578 31.2814C38.8701 31.3751 39.0481 31.5164 39.0481 31.7292V42.8806C39.0481 49.0881 36.6073 53.6811 32.941 56.6876C29.2771 59.6918 24.3965 61.1069 19.5213 60.9774C14.6459 60.8482 9.7668 59.1746 6.1049 55.9901C2.44085 52.8038 2.60998e-05 48.1086 0 41.9509V15.8178L0.100674 15.8099ZM38.7678 23.3691H31.9301C27.9229 23.3691 23.348 26.7101 23.348 32.9995V41.4688C23.348 42.7693 22.8622 43.719 22.1257 44.3325C21.3917 44.9438 20.4177 45.2142 19.45 45.1782C17.5198 45.106 15.5601 43.8052 15.5601 41.4688V31.1642C15.5602 24.0458 21.777 15.5273 33.332 15.5273H38.7678V23.3691ZM38.9082 7.70085H31.3696C22.1636 7.70085 16.7237 13.3187 15.7462 14.3031L15.5601 14.4904V5.19141C15.5601 5.07654 15.6019 4.95978 15.6706 4.84513C15.7395 4.72998 15.8392 4.61081 15.9643 4.48899C16.2144 4.24538 16.5765 3.98117 17.0302 3.70772C17.9385 3.16028 19.2292 2.56645 20.7669 2.01789C23.8423 0.920742 27.9199 4.89439e-06 31.9301 0H38.9082V7.70085Z" fill="white"/>
<path d="M45.621 19.2128V5.09943C45.621 4.93091 45.7675 4.78345 45.9349 4.78345H53.8856C54.1576 4.78345 54.3041 5.0573 54.1786 5.28901L53.4881 6.53183C53.4463 6.59502 53.3626 6.65822 53.2789 6.65822H49.4499C49.2826 6.65822 49.1361 6.80567 49.1361 6.97419V10.0286C49.1361 10.2603 49.3035 10.4288 49.5336 10.4288H53.2579C53.5299 10.4288 53.6764 10.7026 53.5509 10.9344L52.8604 12.1772C52.8186 12.2404 52.7349 12.3036 52.6512 12.3036H49.5336C49.3035 12.3036 49.1361 12.4721 49.1361 12.7038V19.2128C49.1361 19.3813 48.9896 19.5288 48.8222 19.5288H45.9349C45.7675 19.5288 45.621 19.3813 45.621 19.2128ZM55.3241 19.2128V4.67813C55.3241 4.50961 55.4706 4.36216 55.6379 4.36216H58.3161C58.4835 4.36216 58.6299 4.50961 58.6299 4.67813V19.2128C58.6299 19.3813 58.4835 19.5288 58.3161 19.5288H55.6379C55.4706 19.5288 55.3241 19.3813 55.3241 19.2128ZM60.1004 14.5154V13.6938C60.1004 10.3024 61.8371 8.55405 64.578 8.55405H65.7497C68.4906 8.55405 70.2272 10.3024 70.2272 13.6938V14.5154C70.2272 17.9068 68.4906 19.6552 65.7497 19.6552H64.578C61.8371 19.6552 60.1004 17.9068 60.1004 14.5154ZM63.4272 13.5464V14.6628C63.4272 17.2959 64.0549 18.0332 65.0383 18.0332H65.2684C66.2728 18.0332 66.9004 17.2959 66.9004 14.6628V13.5464C66.9004 10.9133 66.2728 10.176 65.2684 10.176H65.0383C64.0549 10.176 63.4272 10.9133 63.4272 13.5464ZM77.9258 16.2427V8.97534C77.9258 8.80682 78.0723 8.65937 78.2397 8.65937H80.9178C81.0852 8.65937 81.2317 8.80682 81.2317 8.97534V17.5908C81.2317 17.7593 81.3363 17.8647 81.5037 17.8647H82.487C82.7172 17.8647 82.8427 18.1174 82.7381 18.307L82.1314 19.4235C82.1104 19.4656 82.0267 19.5288 81.943 19.5288H79.767C79.0138 19.5288 78.4698 19.2549 78.1769 18.7494C77.612 19.3392 76.796 19.6552 75.7498 19.6552H74.9129C72.9252 19.6552 71.6907 18.5387 71.6907 16.3691V8.97534C71.6907 8.80682 71.8372 8.65937 72.0046 8.65937H74.6827C74.8501 8.65937 74.9966 8.80682 74.9966 8.97534V16.2427C74.9966 17.5066 75.5197 17.8647 76.3357 17.8647H76.5449C77.3818 17.8647 77.9258 17.5066 77.9258 16.2427ZM90.0409 10.3235H88.7228C87.6975 10.3235 87.1745 10.8501 87.1745 11.8823V19.2128C87.1745 19.3813 87.028 19.5288 86.8606 19.5288H84.1825C84.0151 19.5288 83.8686 19.3813 83.8686 19.2128V11.2082C83.8686 9.50196 84.7055 8.65937 86.4003 8.65937H90.5849C90.8151 8.65937 90.9406 8.91215 90.836 9.10173L90.2292 10.2182C90.2083 10.2603 90.1246 10.3235 90.0409 10.3235ZM91.96 19.2128V8.97534C91.96 8.80682 92.1064 8.65937 92.2738 8.65937H94.952C95.1193 8.65937 95.2658 8.80682 95.2658 8.97534V19.2128C95.2658 19.3813 95.1193 19.5288 94.952 19.5288H92.2738C92.1064 19.5288 91.96 19.3813 91.96 19.2128ZM91.96 7.01632V5.52072C91.96 5.3522 92.1064 5.20475 92.2738 5.20475H94.952C95.1193 5.20475 95.2658 5.3522 95.2658 5.52072V7.01632C95.2658 7.18484 95.1193 7.33229 94.952 7.33229H92.2738C92.1064 7.33229 91.96 7.18484 91.96 7.01632ZM96.8828 11.8823V11.4399C96.8828 9.56515 97.9917 8.65937 99.7283 8.65937H105.106C105.336 8.65937 105.461 8.91215 105.357 9.10173L104.771 10.176C104.75 10.2182 104.666 10.2814 104.582 10.2814H101.402C100.67 10.2814 100.21 10.492 100.21 11.2293V11.5242C100.21 12.5563 100.691 12.6617 101.402 12.8302L103.202 13.2725C104.875 13.6938 106.047 14.3469 106.047 16.3059V16.7482C106.047 18.623 104.938 19.5288 103.202 19.5288H97.2594C97.0292 19.5288 96.9037 19.276 97.0083 19.0864L97.5942 18.0121C97.6151 17.97 97.6988 17.9068 97.7825 17.9068H101.528C102.26 17.9068 102.72 17.6961 102.72 16.9378V16.6429C102.72 15.5897 102.239 15.4633 101.528 15.2948L99.7283 14.8524C98.0545 14.4311 96.8828 13.7992 96.8828 11.8823ZM107.652 19.2128V4.67813C107.652 4.50961 107.799 4.36216 107.966 4.36216H110.644C110.812 4.36216 110.958 4.50961 110.958 4.67813V8.38553C110.958 8.53298 111.084 8.65937 111.23 8.65937H114.348C116.168 8.65937 117.193 9.69154 117.193 11.5242V19.2128C117.193 19.3813 117.047 19.5288 116.879 19.5288H114.201C114.034 19.5288 113.887 19.3813 113.887 19.2128V11.6295C113.887 10.7869 113.427 10.3235 112.59 10.3235H111.272C111.105 10.3235 110.958 10.4709 110.958 10.6395V19.2128C110.958 19.3813 110.812 19.5288 110.644 19.5288H107.966C107.799 19.5288 107.652 19.3813 107.652 19.2128ZM56.6893 29.2414V36.1296C56.6893 36.2981 56.5429 36.4455 56.3755 36.4455H50.8099C46.8555 36.4455 45.3072 34.634 45.3072 30.0208V28.0828C45.3072 23.4696 46.8555 21.6581 50.8099 21.6581H55.9152C56.1872 21.6581 56.3336 21.9319 56.2081 22.1636L55.5176 23.4064C55.4758 23.4696 55.3921 23.5328 55.3084 23.5328H52.2536C49.8684 23.5328 48.9478 24.4597 48.9478 27.3456V30.758C48.9478 33.4965 49.8684 34.5708 52.2536 34.5708H52.6512C52.9441 34.5708 53.1742 34.339 53.1742 34.0441V31.1793C53.1742 30.9687 53.0069 30.8002 52.7976 30.8002H51.2284C50.9564 30.8002 50.8099 30.5263 50.9355 30.2946L51.6259 29.0518C51.6678 28.9886 51.7515 28.9254 51.8352 28.9254H56.3755C56.5429 28.9254 56.6893 29.0729 56.6893 29.2414ZM58.0777 33.2647V32.7592C58.0777 30.5895 59.5841 29.4731 61.9693 29.4731H64.522V28.5252C64.522 27.6826 64.0617 27.2192 63.2247 27.2192H59.6469C59.4167 27.2192 59.2912 26.9664 59.3958 26.7768L60.0026 25.6604C60.0235 25.6182 60.1072 25.5551 60.1909 25.5551H64.9823C66.8026 25.5551 67.8278 26.5872 67.8278 28.4199V34.4865C67.8278 34.655 67.9324 34.7603 68.0998 34.7603H69.0832C69.3134 34.7603 69.4389 35.0131 69.3343 35.2027L68.7275 36.3191C68.7066 36.3613 68.6229 36.4245 68.5392 36.4245H66.3632C65.61 36.4245 65.066 36.1506 64.773 35.624C64.1872 36.2349 63.3294 36.5508 62.2623 36.5508H61.3835C59.354 36.5508 58.0777 35.4344 58.0777 33.2647ZM61.4044 32.6328V33.1384C61.4044 34.4022 61.9484 34.7603 62.8272 34.7603H63.0364C63.9361 34.7603 64.522 34.4022 64.522 33.1384V31.0108H62.8272C61.9484 31.0108 61.4044 31.3689 61.4044 32.6328ZM76.9841 36.4245H73.7619C72.0671 36.4245 71.2302 35.5819 71.2302 33.8756V27.4509C71.2302 27.3245 71.1256 27.2192 71.0001 27.2192H69.661C69.4308 27.2192 69.3053 26.9664 69.4099 26.7768L70.0167 25.6604C70.0585 25.5972 70.1004 25.5551 70.205 25.5551H70.6444C70.9791 25.5551 71.2302 25.3023 71.2302 24.9652V23.912C71.2302 23.7856 71.293 23.6592 71.4394 23.596L73.9711 22.6271C74.2641 22.5217 74.5361 22.7113 74.5361 23.0273V25.3233C74.5361 25.4497 74.6407 25.5551 74.7662 25.5551H77.1933C77.4234 25.5551 77.549 25.8078 77.4444 25.9974L76.8376 27.1138C76.7958 27.177 76.7539 27.2192 76.6493 27.2192H74.7662C74.6407 27.2192 74.5361 27.3245 74.5361 27.4509V33.2016C74.5361 34.2337 75.0591 34.7603 76.0844 34.7603H77.5281C77.7582 34.7603 77.8837 35.0131 77.7791 35.2027L77.1724 36.3191C77.1305 36.3823 77.0887 36.4245 76.9841 36.4245ZM87.5657 31.8534H82.0211C82.1048 34.1284 83.0672 34.8025 84.5528 34.8025H87.9005C88.1306 34.8025 88.2561 35.0553 88.1515 35.2448L87.5657 36.3191C87.5448 36.3613 87.4611 36.4245 87.3774 36.4245H83.1718C80.4309 36.4245 78.6943 34.6761 78.6943 31.4111V30.5895C78.6943 27.1981 80.4309 25.4497 83.1718 25.4497H84.3435C87.0845 25.4497 88.8209 27.1981 88.8209 30.5895C88.8209 31.3057 88.298 31.8534 87.5657 31.8534ZM83.6321 27.0717C82.6697 27.0717 82.0629 27.7669 82.0211 30.2314H85.3269C85.4734 30.2314 85.5989 30.105 85.5989 29.9365C85.5989 27.6826 84.8875 27.0717 83.8623 27.0717H83.6321ZM90.1196 28.778V28.3356C90.1196 26.4608 91.2285 25.5551 92.9651 25.5551H98.3424C98.5725 25.5551 98.6981 25.8078 98.5935 25.9974L98.0076 27.0717C97.9867 27.1138 97.903 27.177 97.8193 27.177H94.639C93.9067 27.177 93.4464 27.3877 93.4464 28.125V28.4199C93.4464 29.452 93.9276 29.5574 94.639 29.7259L96.4384 30.1682C98.1122 30.5895 99.2839 31.2425 99.2839 33.2016V33.6439C99.2839 35.5187 98.175 36.4245 96.4384 36.4245H90.4962C90.2661 36.4245 90.1405 36.1717 90.2451 35.9821L90.831 34.9078C90.8519 34.8657 90.9356 34.8025 91.0193 34.8025H94.7645C95.4966 34.8025 95.9571 34.5918 95.9571 33.8335V33.5386C95.9571 32.4854 95.4759 32.359 94.7645 32.1904L92.9651 31.7481C91.2913 31.3268 90.1196 30.6948 90.1196 28.778Z" fill="white"/>
<path d="M47.5948 45.7245C47.2182 45.7245 46.867 45.6638 46.5416 45.542C46.2208 45.4156 45.9418 45.2376 45.7047 45.0083C45.4676 44.779 45.2817 44.5098 45.1468 44.2009C45.0167 43.8919 44.9515 43.5525 44.9515 43.1827C44.9515 42.813 45.0167 42.4736 45.1468 42.1646C45.2817 41.8557 45.4676 41.5864 45.7047 41.3571C45.9464 41.1278 46.2278 40.9523 46.5486 40.8305C46.8694 40.7041 47.2206 40.6409 47.6017 40.6409C48.0248 40.6409 48.4062 40.7157 48.7455 40.8656C49.0897 41.0107 49.3778 41.2261 49.6104 41.5116L48.885 42.1857C48.7176 41.9937 48.5317 41.851 48.3271 41.7574C48.1224 41.6591 47.8992 41.6099 47.6575 41.6099C47.4298 41.6099 47.2206 41.6474 47.0299 41.7222C46.8391 41.7971 46.6742 41.9048 46.5347 42.0452C46.3952 42.1857 46.286 42.3518 46.2069 42.5438C46.1326 42.7358 46.0953 42.9486 46.0953 43.1827C46.0953 43.4169 46.1326 43.6297 46.2069 43.8217C46.286 44.0137 46.3952 44.1798 46.5347 44.3202C46.6742 44.4607 46.8391 44.5684 47.0299 44.6432C47.2206 44.718 47.4298 44.7556 47.6575 44.7556C47.8992 44.7556 48.1224 44.7088 48.3271 44.6151C48.5317 44.5168 48.7176 44.3694 48.885 44.1728L49.6104 44.8469C49.3778 45.1323 49.0897 45.35 48.7455 45.4999C48.4062 45.6497 48.0226 45.7245 47.5948 45.7245ZM52.9306 45.6965C52.5309 45.6965 52.1752 45.6122 51.8635 45.4437C51.5566 45.2752 51.3125 45.0459 51.1312 44.7556C50.9547 44.4607 50.8662 44.126 50.8662 43.7515C50.8662 43.3723 50.9547 43.0377 51.1312 42.7474C51.3125 42.4525 51.5566 42.2232 51.8635 42.0593C52.1752 41.8908 52.5309 41.8065 52.9306 41.8065C53.326 41.8065 53.6792 41.8908 53.9907 42.0593C54.3024 42.2232 54.5465 42.4501 54.7232 42.7404C54.8998 43.0307 54.9882 43.3677 54.9882 43.7515C54.9882 44.126 54.8998 44.4607 54.7232 44.7556C54.5465 45.0459 54.3024 45.2752 53.9907 45.4437C53.6792 45.6122 53.326 45.6965 52.9306 45.6965ZM52.9306 44.7977C53.1119 44.7977 53.2747 44.7556 53.419 44.6713C53.5631 44.5871 53.6769 44.4677 53.7608 44.3132C53.8445 44.1541 53.8863 43.9667 53.8863 43.7515C53.8863 43.5314 53.8445 43.3442 53.7608 43.1898C53.6769 43.0353 53.5631 42.9159 53.419 42.8317C53.2747 42.7474 53.1119 42.7053 52.9306 42.7053C52.7493 42.7053 52.5867 42.7474 52.4424 42.8317C52.2983 42.9159 52.1822 43.0353 52.0937 43.1898C52.01 43.3442 51.9681 43.5314 51.9681 43.7515C51.9681 43.9667 52.01 44.1541 52.0937 44.3132C52.1822 44.4677 52.2983 44.5871 52.4424 44.6713C52.5867 44.7556 52.7493 44.7977 52.9306 44.7977ZM56.7615 45.6403V41.8627H57.8007V42.9089L57.6054 42.5929C57.7403 42.3401 57.9332 42.146 58.1843 42.0101C58.4353 41.8743 58.7213 41.8065 59.0421 41.8065C59.3398 41.8065 59.6048 41.8673 59.8372 41.9891C60.0743 42.106 60.2604 42.2886 60.3951 42.5368C60.53 42.7801 60.5974 43.0939 60.5974 43.4776V45.6403H59.5094V43.6462C59.5094 43.3418 59.442 43.1171 59.3071 42.9721C59.177 42.827 58.9911 42.7544 58.7492 42.7544C58.5772 42.7544 58.4214 42.7919 58.2819 42.8668C58.1472 42.937 58.0402 43.0469 57.9611 43.1968C57.8867 43.3466 57.8495 43.5384 57.8495 43.7726V45.6403H56.7615ZM63.8921 45.6965C63.5713 45.6965 63.2622 45.6589 62.9645 45.5841C62.6716 45.5045 62.4393 45.4062 62.2671 45.2892L62.6297 44.5028C62.8019 44.6105 63.0042 44.6994 63.2365 44.7696C63.4736 44.8352 63.7062 44.8679 63.934 44.8679C64.185 44.8679 64.3618 44.8374 64.464 44.7766C64.571 44.7159 64.6244 44.6316 64.6244 44.5239C64.6244 44.435 64.5826 44.3694 64.4989 44.3273C64.42 44.2805 64.313 44.2454 64.1781 44.2219C64.0434 44.1985 63.8945 44.1752 63.7317 44.1517C63.5737 44.1282 63.4133 44.098 63.2505 44.0604C63.0879 44.0183 62.939 43.9575 62.8041 43.8779C62.6694 43.7982 62.56 43.6907 62.4763 43.5549C62.3974 43.4191 62.3577 43.2435 62.3577 43.0283C62.3577 42.7895 62.4253 42.5789 62.56 42.3963C62.6995 42.2138 62.8996 42.0709 63.1598 41.968C63.4202 41.8603 63.7317 41.8065 64.0944 41.8065C64.3502 41.8065 64.6105 41.8346 64.8755 41.8908C65.1405 41.9469 65.3615 42.0288 65.5381 42.1365L65.1754 42.9159C64.9941 42.8082 64.8105 42.7358 64.6244 42.6982C64.4431 42.6561 64.2665 42.6351 64.0944 42.6351C63.8527 42.6351 63.6759 42.6677 63.5643 42.7334C63.4527 42.799 63.3969 42.8832 63.3969 42.9861C63.3969 43.0798 63.4366 43.15 63.5155 43.1968C63.5992 43.2435 63.7086 43.281 63.8433 43.3091C63.9782 43.3372 64.1247 43.3629 64.2827 43.3864C64.4455 43.405 64.6083 43.4355 64.7709 43.4776C64.9337 43.5198 65.0801 43.5806 65.2103 43.6602C65.3452 43.735 65.4544 43.8404 65.5381 43.9762C65.6218 44.1072 65.6636 44.2805 65.6636 44.4958C65.6636 44.7299 65.5939 44.9381 65.4544 45.1207C65.3149 45.2986 65.1126 45.4391 64.8476 45.542C64.5874 45.6449 64.2687 45.6965 63.8921 45.6965ZM68.9154 45.6965C68.4738 45.6965 68.1297 45.5841 67.8832 45.3594C67.6369 45.1301 67.5135 44.7907 67.5135 44.3413V41.0271H68.6015V44.3273C68.6015 44.4863 68.6434 44.6105 68.7271 44.6994C68.8108 44.7837 68.9248 44.8258 69.0688 44.8258C69.241 44.8258 69.3875 44.779 69.5082 44.6854L69.8011 45.4577C69.6895 45.5374 69.5548 45.5982 69.3966 45.6403C69.2432 45.6778 69.0828 45.6965 68.9154 45.6965ZM66.9347 42.7053V41.8627H69.5361V42.7053H66.9347ZM71.4582 45.6403V41.8627H72.4974V42.93L72.3509 42.621C72.4625 42.3542 72.6414 42.153 72.8879 42.0172C73.1342 41.8767 73.4341 41.8065 73.7876 41.8065V42.8176C73.741 42.813 73.6991 42.8106 73.6621 42.8106C73.6248 42.806 73.5854 42.8036 73.5435 42.8036C73.2458 42.8036 73.0041 42.8902 72.8182 43.0634C72.6369 43.2319 72.5462 43.4963 72.5462 43.8568V45.6403H71.4582ZM77.0911 45.6965C76.7794 45.6965 76.5004 45.6357 76.2542 45.5139C76.0122 45.3921 75.8239 45.2074 75.6892 44.9592C75.5543 44.7064 75.487 44.3858 75.487 43.9972V41.8627H76.575V43.8357C76.575 44.1493 76.6399 44.381 76.7703 44.5309C76.905 44.6759 77.0933 44.7486 77.3352 44.7486C77.5026 44.7486 77.6512 44.7134 77.7815 44.6432C77.9117 44.5684 78.0139 44.4561 78.0884 44.3062C78.1627 44.1517 78.2 43.9597 78.2 43.7304V41.8627H79.288V45.6403H78.2558V44.6011L78.4441 44.903C78.3186 45.1652 78.1324 45.364 77.8862 45.4999C77.6442 45.6309 77.3792 45.6965 77.0911 45.6965ZM83.1555 45.6965C82.751 45.6965 82.3905 45.6146 82.0745 45.4507C81.7582 45.2822 81.5096 45.0505 81.3282 44.7556C81.1515 44.4607 81.0632 44.126 81.0632 43.7515C81.0632 43.3723 81.1515 43.0377 81.3282 42.7474C81.5096 42.4525 81.7582 42.2232 82.0745 42.0593C82.3905 41.8908 82.751 41.8065 83.1555 41.8065C83.5506 41.8065 83.8948 41.8908 84.1877 42.0593C84.4806 42.2232 84.6968 42.4595 84.8363 42.7685L83.9924 43.2249C83.8948 43.0469 83.7714 42.9159 83.6228 42.8317C83.4785 42.7474 83.3205 42.7053 83.1485 42.7053C82.9624 42.7053 82.795 42.7474 82.6464 42.8317C82.4975 42.9159 82.379 43.0353 82.2907 43.1898C82.207 43.3442 82.1651 43.5314 82.1651 43.7515C82.1651 43.9716 82.207 44.1587 82.2907 44.3132C82.379 44.4677 82.4975 44.5871 82.6464 44.6713C82.795 44.7556 82.9624 44.7977 83.1485 44.7977C83.3205 44.7977 83.4785 44.758 83.6228 44.6783C83.7714 44.5941 83.8948 44.4607 83.9924 44.2781L84.8363 44.7415C84.6968 45.0459 84.4806 45.2822 84.1877 45.4507C83.8948 45.6146 83.5506 45.6965 83.1555 45.6965ZM88.0977 45.6965C87.6559 45.6965 87.3118 45.5841 87.0655 45.3594C86.819 45.1301 86.6959 44.7907 86.6959 44.3413V41.0271H87.7839V44.3273C87.7839 44.4863 87.8257 44.6105 87.9094 44.6994C87.9931 44.7837 88.1069 44.8258 88.2511 44.8258C88.4231 44.8258 88.5696 44.779 88.6905 44.6854L88.9835 45.4577C88.8719 45.5374 88.737 45.5982 88.5789 45.6403C88.4255 45.6778 88.2651 45.6965 88.0977 45.6965ZM86.117 42.7053V41.8627H88.7184V42.7053H86.117ZM90.6403 45.6403V41.8627H91.7283V45.6403H90.6403ZM91.1843 41.3361C90.9844 41.3361 90.8216 41.2775 90.6961 41.1605C90.5706 41.0436 90.5078 40.8983 90.5078 40.7252C90.5078 40.5521 90.5706 40.4068 90.6961 40.2898C90.8216 40.1729 90.9844 40.1143 91.1843 40.1143C91.3842 40.1143 91.547 40.1705 91.6725 40.2828C91.798 40.3906 91.8608 40.531 91.8608 40.7041C91.8608 40.8867 91.798 41.0387 91.6725 41.1605C91.5515 41.2775 91.389 41.3361 91.1843 41.3361ZM95.5696 45.6965C95.1697 45.6965 94.814 45.6122 94.5026 45.4437C94.1957 45.2752 93.9516 45.0459 93.7703 44.7556C93.5935 44.4607 93.5052 44.126 93.5052 43.7515C93.5052 43.3723 93.5935 43.0377 93.7703 42.7474C93.9516 42.4525 94.1957 42.2232 94.5026 42.0593C94.814 41.8908 95.1697 41.8065 95.5696 41.8065C95.9648 41.8065 96.3183 41.8908 96.6297 42.0593C96.9412 42.2232 97.1853 42.4501 97.3621 42.7404C97.5388 43.0307 97.6271 43.3677 97.6271 43.7515C97.6271 44.126 97.5388 44.4607 97.3621 44.7556C97.1853 45.0459 96.9412 45.2752 96.6297 45.4437C96.3183 45.6122 95.9648 45.6965 95.5696 45.6965ZM95.5696 44.7977C95.751 44.7977 95.9138 44.7556 96.0578 44.6713C96.2019 44.5871 96.3159 44.4677 96.3996 44.3132C96.4833 44.1541 96.5251 43.9667 96.5251 43.7515C96.5251 43.5314 96.4833 43.3442 96.3996 43.1898C96.3159 43.0353 96.2019 42.9159 96.0578 42.8317C95.9138 42.7474 95.751 42.7053 95.5696 42.7053C95.3883 42.7053 95.2255 42.7474 95.0814 42.8317C94.9374 42.9159 94.821 43.0353 94.7327 43.1898C94.649 43.3442 94.6072 43.5314 94.6072 43.7515C94.6072 43.9667 94.649 44.1541 94.7327 44.3132C94.821 44.4677 94.9374 44.5871 95.0814 44.6713C95.2255 44.7556 95.3883 44.7977 95.5696 44.7977ZM99.4005 45.6403V41.8627H100.44V42.9089L100.244 42.5929C100.379 42.3401 100.572 42.146 100.823 42.0101C101.074 41.8743 101.36 41.8065 101.681 41.8065C101.979 41.8065 102.244 41.8673 102.476 41.9891C102.713 42.106 102.899 42.2886 103.034 42.5368C103.169 42.7801 103.236 43.0939 103.236 43.4776V45.6403H102.148V43.6462C102.148 43.3418 102.081 43.1171 101.946 42.9721C101.816 42.827 101.63 42.7544 101.388 42.7544C101.216 42.7544 101.06 42.7919 100.921 42.8668C100.786 42.937 100.679 43.0469 100.6 43.1968C100.526 43.3466 100.489 43.5384 100.489 43.7726V45.6403H99.4005ZM45.2584 54.1978V49.2827H46.3882V53.271H48.8362V54.1978H45.2584ZM50.4368 54.1978V50.4202H51.5248V54.1978H50.4368ZM50.9808 49.8936C50.781 49.8936 50.6182 49.835 50.4926 49.7181C50.3671 49.6011 50.3043 49.4559 50.3043 49.2827C50.3043 49.1096 50.3671 48.9644 50.4926 48.8474C50.6182 48.7304 50.781 48.6719 50.9808 48.6719C51.1809 48.6719 51.3435 48.728 51.469 48.8404C51.5946 48.9481 51.6573 49.0885 51.6573 49.2617C51.6573 49.4442 51.5946 49.5963 51.469 49.7181C51.3483 49.835 51.1855 49.8936 50.9808 49.8936ZM53.5807 54.1978V50.4202H54.6199V51.4524L54.4246 51.1505C54.555 50.8931 54.7385 50.6987 54.9756 50.5677C55.2175 50.4319 55.4917 50.3641 55.7986 50.3641C56.1427 50.3641 56.4426 50.4529 56.6985 50.6309C56.9587 50.804 57.1309 51.0708 57.2146 51.4313L56.8308 51.326C56.9563 51.0311 57.1564 50.797 57.4306 50.6239C57.7096 50.4507 58.0282 50.3641 58.3861 50.3641C58.6838 50.3641 58.9464 50.4248 59.1742 50.5466C59.4067 50.6636 59.5881 50.8461 59.7182 51.0943C59.8531 51.3376 59.9206 51.6514 59.9206 52.0352V54.1978H58.8326V52.2037C58.8326 51.8994 58.7697 51.6747 58.6441 51.5296C58.5186 51.3846 58.342 51.312 58.1143 51.312C57.9561 51.312 57.8142 51.3495 57.6886 51.4243C57.5631 51.4945 57.4655 51.6023 57.3957 51.7473C57.326 51.8924 57.2911 52.0773 57.2911 52.302V54.1978H56.2031V52.2037C56.2031 51.8994 56.1403 51.6747 56.0148 51.5296C55.894 51.3846 55.7197 51.312 55.4917 51.312C55.3337 51.312 55.1918 51.3495 55.0663 51.4243C54.9407 51.4945 54.8431 51.6023 54.7734 51.7473C54.7036 51.8924 54.6687 52.0773 54.6687 52.302V54.1978H53.5807ZM61.9419 54.1978V50.4202H63.0299V54.1978H61.9419ZM62.4859 49.8936C62.286 49.8936 62.1232 49.835 61.9977 49.7181C61.8722 49.6011 61.8094 49.4559 61.8094 49.2827C61.8094 49.1096 61.8722 48.9644 61.9977 48.8474C62.1232 48.7304 62.286 48.6719 62.4859 48.6719C62.6858 48.6719 62.8486 48.728 62.9741 48.8404C63.0996 48.9481 63.1624 49.0885 63.1624 49.2617C63.1624 49.4442 63.0996 49.5963 62.9741 49.7181C62.8531 49.835 62.6906 49.8936 62.4859 49.8936ZM66.6202 54.254C66.1784 54.254 65.8345 54.1417 65.588 53.917C65.3415 53.6877 65.2183 53.3482 65.2183 52.8989V49.5847H66.3063V52.8848C66.3063 53.0439 66.3482 53.1681 66.4319 53.257C66.5156 53.3412 66.6295 53.3833 66.7736 53.3833C66.9456 53.3833 67.092 53.3366 67.213 53.2429L67.5059 54.0153C67.3943 54.0949 67.2594 54.1557 67.1014 54.1978C66.948 54.2354 66.7876 54.254 66.6202 54.254ZM64.6395 51.2628V50.4202H67.2409V51.2628H64.6395ZM70.9092 54.254C70.4814 54.254 70.1047 54.1698 69.7793 54.0012C69.4585 53.8327 69.2098 53.6034 69.0331 53.3131C68.8563 53.0182 68.7681 52.6836 68.7681 52.309C68.7681 51.9299 68.8541 51.5952 69.0261 51.305C69.2029 51.01 69.4422 50.7807 69.7445 50.6168C70.0468 50.4483 70.3885 50.3641 70.7697 50.3641C71.1369 50.3641 71.4671 50.4437 71.7601 50.6028C72.0576 50.7573 72.2925 50.982 72.4645 51.2769C72.6364 51.5672 72.7225 51.9158 72.7225 52.3231C72.7225 52.3652 72.7201 52.4144 72.7155 52.4705C72.711 52.5221 72.7062 52.5713 72.7016 52.618H69.6538V51.979H72.1297L71.7112 52.1686C71.7112 51.972 71.6718 51.8011 71.5927 51.656C71.5136 51.511 71.4044 51.3986 71.2649 51.319C71.1254 51.2347 70.9626 51.1926 70.7767 51.1926C70.5908 51.1926 70.4256 51.2347 70.2815 51.319C70.142 51.3986 70.0328 51.5132 69.9537 51.6631C69.8746 51.8081 69.8351 51.9814 69.8351 52.1826V52.3512C69.8351 52.5572 69.8794 52.7398 69.9676 52.8989C70.0607 53.0533 70.1884 53.1727 70.3512 53.257C70.5186 53.3366 70.7139 53.3763 70.9371 53.3763C71.1369 53.3763 71.3113 53.3458 71.4602 53.285C71.6136 53.2243 71.7531 53.133 71.8786 53.0112L72.4575 53.6431C72.2855 53.8397 72.0693 53.9918 71.8089 54.0995C71.5484 54.2025 71.2485 54.254 70.9092 54.254ZM76.1042 54.254C75.7507 54.254 75.4323 54.1744 75.1487 54.0153C74.865 53.8514 74.6396 53.6245 74.4722 53.3342C74.3094 53.0439 74.2281 52.7022 74.2281 52.309C74.2281 51.9112 74.3094 51.5672 74.4722 51.2769C74.6396 50.9866 74.865 50.7619 75.1487 50.6028C75.4323 50.4437 75.7507 50.3641 76.1042 50.3641C76.4202 50.3641 76.697 50.4343 76.9342 50.5747C77.1713 50.7151 77.3548 50.9282 77.4851 51.2137C77.6152 51.4991 77.6804 51.8643 77.6804 52.309C77.6804 52.749 77.6176 53.1141 77.4921 53.4044C77.3666 53.6899 77.1852 53.9029 76.9481 54.0434C76.7156 54.1838 76.4342 54.254 76.1042 54.254ZM76.2925 53.3553C76.4691 53.3553 76.6295 53.3131 76.7738 53.2289C76.9178 53.1446 77.0318 53.0252 77.1155 52.8708C77.2038 52.7117 77.248 52.5243 77.248 52.309C77.248 52.089 77.2038 51.9018 77.1155 51.7473C77.0318 51.5928 76.9178 51.4735 76.7738 51.3892C76.6295 51.305 76.4691 51.2628 76.2925 51.2628C76.1112 51.2628 75.9484 51.305 75.8043 51.3892C75.66 51.4735 75.5439 51.5928 75.4556 51.7473C75.3719 51.9018 75.3301 52.089 75.3301 52.309C75.3301 52.5243 75.3719 52.7117 75.4556 52.8708C75.5439 53.0252 75.66 53.1446 75.8043 53.2289C75.9484 53.3131 76.1112 53.3553 76.2925 53.3553ZM77.2759 54.1978V53.4255L77.2968 52.302L77.2271 51.1856V48.9878H78.3151V54.1978H77.2759Z" fill="white"/>
</svg>
